<svg width="165" height="36" viewBox="0 0 165 36" fill="none" xmlns="http://www.w3.org/2000/svg">
<path fill-rule="evenodd" clip-rule="evenodd" d="M18 36C27.9412 36 36 27.9411 36 18C36 8.05888 27.9412 0 18 0C8.05887 0 0 8.05888 0 18C0 27.9411 8.05887 36 18 36ZM20.7783 13.9073C22.3126 12.3729 22.3126 9.88521 20.7783 8.3508C19.2439 6.81641 16.7562 6.81641 15.2218 8.3508C13.6874 9.88521 13.6874 12.3729 15.2218 13.9073L18 16.6855L20.7783 13.9073ZM22.0927 20.7783C23.6271 22.3127 26.1148 22.3127 27.6493 20.7783C29.1836 19.2439 29.1836 16.7562 27.6493 15.2218C26.1148 13.6874 23.6271 13.6874 22.0927 15.2218L19.3145 18.0001L22.0927 20.7783ZM20.7783 27.6493C22.3126 26.1148 22.3126 23.6271 20.7783 22.0927L18 19.3145L15.2218 22.0927C13.6874 23.6271 13.6874 26.1148 15.2218 27.6493C16.7562 29.1837 19.2439 29.1837 20.7783 27.6493ZM8.35077 20.7783C6.81642 19.2439 6.81642 16.7562 8.35077 15.2218C9.88521 13.6874 12.3729 13.6874 13.9073 15.2218L16.6855 18.0001L13.9073 20.7783C12.3729 22.3127 9.88521 22.3127 8.35077 20.7783Z" fill="#0D903A"/>
<path d="M47.6602 25V10.4545H53.9386C55.0181 10.4545 55.9627 10.651 56.7724 11.044C57.582 11.437 58.2118 12.0028 58.6616 12.7415C59.1114 13.4801 59.3363 14.3655 59.3363 15.3977C59.3363 16.4394 59.1043 17.3177 58.6403 18.0327C58.181 18.7476 57.5347 19.2874 56.7013 19.652C55.8728 20.0166 54.9045 20.1989 53.7965 20.1989H50.0465V17.1307H53.0011C53.4651 17.1307 53.8604 17.0739 54.1871 16.9602C54.5186 16.8419 54.7719 16.6548 54.9471 16.3991C55.127 16.1435 55.217 15.8097 55.217 15.3977C55.217 14.9811 55.127 14.6425 54.9471 14.3821C54.7719 14.117 54.5186 13.9228 54.1871 13.7997C53.8604 13.6719 53.4651 13.608 53.0011 13.608H51.609V25H47.6602ZM56.1829 18.3239L59.8192 25H55.5295L51.9783 18.3239H56.1829ZM66.0692 25.1989C64.9045 25.1989 63.9007 24.9763 63.0579 24.5312C62.2198 24.0814 61.5735 23.4375 61.119 22.5994C60.6692 21.7566 60.4442 20.7481 60.4442 19.5739C60.4442 18.447 60.6715 17.4621 61.1261 16.6193C61.5806 15.7765 62.2222 15.1207 63.0508 14.652C63.8794 14.1832 64.8571 13.9489 65.984 13.9489C66.8079 13.9489 67.5536 14.0767 68.2212 14.3324C68.8888 14.5881 69.4594 14.9598 69.9329 15.4474C70.4064 15.9304 70.771 16.5175 71.0266 17.2088C71.2823 17.9001 71.4102 18.679 71.4102 19.5455V20.4545H61.6658V18.2955H67.8022C67.7975 17.983 67.717 17.7083 67.5607 17.4716C67.4092 17.2301 67.2032 17.0431 66.9428 16.9105C66.6871 16.7732 66.396 16.7045 66.0692 16.7045C65.752 16.7045 65.4608 16.7732 65.1957 16.9105C64.9305 17.0431 64.7174 17.2277 64.5565 17.4645C64.4002 17.7012 64.3174 17.9782 64.3079 18.2955V20.625C64.3079 20.9754 64.3813 21.2879 64.5281 21.5625C64.6748 21.8371 64.8855 22.0526 65.1602 22.2088C65.4348 22.3651 65.7662 22.4432 66.1545 22.4432C66.4244 22.4432 66.6706 22.4053 66.8931 22.3295C67.1204 22.2538 67.3145 22.1449 67.4755 22.0028C67.6365 21.8561 67.7549 21.6809 67.8306 21.4773H71.4102C71.2871 22.2348 70.9959 22.893 70.5366 23.4517C70.0773 24.0057 69.4689 24.4366 68.7113 24.7443C67.9585 25.0473 67.0778 25.1989 66.0692 25.1989ZM76.9304 18.8636V25H73.0099V14.0909H76.7315V16.1648H76.8452C77.0819 15.4735 77.4986 14.9313 78.0952 14.5384C78.6965 14.1454 79.3973 13.9489 80.1974 13.9489C80.9692 13.9489 81.6392 14.1264 82.2074 14.4815C82.7803 14.8319 83.223 15.3149 83.5355 15.9304C83.8527 16.5459 84.009 17.2491 84.0043 18.0398V25H80.0838V18.8636C80.0885 18.3239 79.9512 17.9001 79.6719 17.5923C79.3973 17.2846 79.0137 17.1307 78.5213 17.1307C78.1993 17.1307 77.9176 17.2017 77.6761 17.3438C77.4394 17.4811 77.2571 17.6799 77.1293 17.9403C77.0014 18.196 76.9351 18.5038 76.9304 18.8636ZM92.4453 14.0909V16.9318H85.2578V14.0909H92.4453ZM86.6499 11.4773H90.5703V21.4915C90.5703 21.643 90.5964 21.7708 90.6484 21.875C90.7005 21.9744 90.781 22.0502 90.8899 22.1023C90.9988 22.1496 91.1385 22.1733 91.3089 22.1733C91.4273 22.1733 91.5646 22.1591 91.7209 22.1307C91.8819 22.1023 92.0002 22.0786 92.076 22.0597L92.6442 24.8153C92.469 24.8674 92.218 24.9313 91.8913 25.0071C91.5694 25.0829 91.1858 25.1326 90.7408 25.1562C89.8411 25.2036 89.0859 25.1113 88.4751 24.8793C87.8643 24.6425 87.4051 24.2708 87.0973 23.7642C86.7895 23.2576 86.6404 22.6231 86.6499 21.8608V11.4773ZM108.079 17.7273C108.079 19.3466 107.764 20.7126 107.135 21.8253C106.505 22.9332 105.655 23.7737 104.585 24.3466C103.515 24.9148 102.322 25.1989 101.005 25.1989C99.6796 25.1989 98.4817 24.9124 97.4116 24.3395C96.3462 23.7618 95.4987 22.919 94.869 21.8111C94.244 20.6984 93.9315 19.3371 93.9315 17.7273C93.9315 16.108 94.244 14.7443 94.869 13.6364C95.4987 12.5237 96.3462 11.6832 97.4116 11.1151C98.4817 10.5421 99.6796 10.2557 101.005 10.2557C102.322 10.2557 103.515 10.5421 104.585 11.1151C105.655 11.6832 106.505 12.5237 107.135 13.6364C107.764 14.7443 108.079 16.108 108.079 17.7273ZM104.017 17.7273C104.017 16.8561 103.901 16.1222 103.669 15.5256C103.441 14.9242 103.103 14.4697 102.653 14.1619C102.208 13.8494 101.659 13.6932 101.005 13.6932C100.352 13.6932 99.8003 13.8494 99.3505 14.1619C98.9054 14.4697 98.5669 14.9242 98.3349 15.5256C98.1076 16.1222 97.994 16.8561 97.994 17.7273C97.994 18.5985 98.1076 19.3348 98.3349 19.9361C98.5669 20.5327 98.9054 20.9872 99.3505 21.2997C99.8003 21.6075 100.352 21.7614 101.005 21.7614C101.659 21.7614 102.208 21.6075 102.653 21.2997C103.103 20.9872 103.441 20.5327 103.669 19.9361C103.901 19.3348 104.017 18.5985 104.017 17.7273ZM116.497 14.0909V16.9318H109.196V14.0909H116.497ZM110.588 25V13.7784C110.588 12.8788 110.749 12.133 111.071 11.5412C111.393 10.9493 111.848 10.5066 112.435 10.2131C113.022 9.91951 113.713 9.77273 114.509 9.77273C115.006 9.77273 115.489 9.81061 115.957 9.88636C116.431 9.96212 116.781 10.0284 117.009 10.0852L116.44 12.8977C116.298 12.8551 116.133 12.822 115.943 12.7983C115.754 12.7699 115.588 12.7557 115.446 12.7557C115.077 12.7557 114.828 12.8338 114.7 12.9901C114.572 13.1463 114.509 13.3523 114.509 13.608V25H110.588ZM124.544 14.0909V16.9318H117.243V14.0909H124.544ZM118.635 25V13.7784C118.635 12.8788 118.796 12.133 119.118 11.5412C119.44 10.9493 119.894 10.5066 120.482 10.2131C121.069 9.91951 121.76 9.77273 122.555 9.77273C123.053 9.77273 123.536 9.81061 124.004 9.88636C124.478 9.96212 124.828 10.0284 125.055 10.0852L124.487 12.8977C124.345 12.8551 124.179 12.822 123.99 12.7983C123.801 12.7699 123.635 12.7557 123.493 12.7557C123.124 12.7557 122.875 12.8338 122.747 12.9901C122.619 13.1463 122.555 13.3523 122.555 13.608V25H118.635ZM126.057 25V14.0909H129.977V25H126.057ZM128.017 12.9545C127.487 12.9545 127.032 12.7794 126.653 12.429C126.275 12.0786 126.085 11.6572 126.085 11.1648C126.085 10.6723 126.275 10.2509 126.653 9.90057C127.032 9.55019 127.487 9.375 128.017 9.375C128.552 9.375 129.007 9.55019 129.381 9.90057C129.759 10.2509 129.949 10.6723 129.949 11.1648C129.949 11.6572 129.759 12.0786 129.381 12.429C129.007 12.7794 128.552 12.9545 128.017 12.9545ZM137.23 25.1989C136.047 25.1989 135.033 24.9645 134.191 24.4957C133.348 24.0223 132.702 23.3641 132.252 22.5213C131.802 21.6738 131.577 20.6913 131.577 19.5739C131.577 18.4564 131.802 17.4763 132.252 16.6335C132.702 15.786 133.348 15.1278 134.191 14.6591C135.033 14.1856 136.047 13.9489 137.23 13.9489C138.301 13.9489 139.226 14.143 140.007 14.5312C140.793 14.9148 141.402 15.4593 141.833 16.1648C142.264 16.8655 142.481 17.6894 142.486 18.6364H138.85C138.798 18.0634 138.632 17.6278 138.353 17.3295C138.078 17.0265 137.723 16.875 137.287 16.875C136.946 16.875 136.648 16.9744 136.392 17.1733C136.137 17.3674 135.938 17.6634 135.796 18.0611C135.654 18.4541 135.583 18.9489 135.583 19.5455C135.583 20.142 135.654 20.6392 135.796 21.0369C135.938 21.4299 136.137 21.7259 136.392 21.9247C136.648 22.1188 136.946 22.2159 137.287 22.2159C137.576 22.2159 137.832 22.1496 138.054 22.017C138.277 21.8797 138.457 21.6809 138.594 21.4205C138.736 21.1553 138.821 20.8333 138.85 20.4545H142.486C142.472 21.4157 142.252 22.2538 141.826 22.9688C141.4 23.679 140.796 24.2282 140.015 24.6165C139.238 25.0047 138.31 25.1989 137.23 25.1989ZM149.331 25.1989C148.166 25.1989 147.162 24.9763 146.32 24.5312C145.482 24.0814 144.835 23.4375 144.381 22.5994C143.931 21.7566 143.706 20.7481 143.706 19.5739C143.706 18.447 143.933 17.4621 144.388 16.6193C144.842 15.7765 145.484 15.1207 146.312 14.652C147.141 14.1832 148.119 13.9489 149.246 13.9489C150.07 13.9489 150.815 14.0767 151.483 14.3324C152.151 14.5881 152.721 14.9598 153.195 15.4474C153.668 15.9304 154.033 16.5175 154.288 17.2088C154.544 17.9001 154.672 18.679 154.672 19.5455V20.4545H144.928V18.2955H151.064C151.059 17.983 150.979 17.7083 150.822 17.4716C150.671 17.2301 150.465 17.0431 150.205 16.9105C149.949 16.7732 149.658 16.7045 149.331 16.7045C149.014 16.7045 148.723 16.7732 148.457 16.9105C148.192 17.0431 147.979 17.2277 147.818 17.4645C147.662 17.7012 147.579 17.9782 147.57 18.2955V20.625C147.57 20.9754 147.643 21.2879 147.79 21.5625C147.937 21.8371 148.147 22.0526 148.422 22.2088C148.696 22.3651 149.028 22.4432 149.416 22.4432C149.686 22.4432 149.932 22.4053 150.155 22.3295C150.382 22.2538 150.576 22.1449 150.737 22.0028C150.898 21.8561 151.017 21.6809 151.092 21.4773H154.672C154.549 22.2348 154.258 22.893 153.798 23.4517C153.339 24.0057 152.731 24.4366 151.973 24.7443C151.22 25.0473 150.339 25.1989 149.331 25.1989Z" fill="black"/>
</svg>
